<svg width="192" height="192" viewBox="0 0 192 192" fill="none" xmlns="http://www.w3.org/2000/svg">
<rect x="9.5" y="35.5" width="173" height="62" rx="6.5" fill="#B2CCFF" stroke="#B2CCFF" stroke-width="3" stroke-linecap="round"/>
<path d="M71.9092 89.0567L88.0409 64.8125L100.903 84.1216L102.201 86.0699L103.498 84.1211L110.638 73.3928L121.065 89.0558L71.9092 89.0567Z" fill="#0040C1" stroke="#0040C1" stroke-width="3.1172"/>
<path d="M105.014 65.5015C105.014 66.577 104.146 67.4474 103.069 67.4474C101.995 67.4474 101.126 66.5773 101.126 65.5015C101.126 64.4273 101.993 63.5589 103.069 63.5586C104.149 63.5596 105.014 64.4288 105.014 65.5015Z" fill="#0040C1" stroke="#0040C1" stroke-width="3.1172"/>
<line x1="9.5" y1="129.5" x2="182.5" y2="129.5" stroke="#D0D5DD" stroke-width="3" stroke-linecap="round"/>
<line x1="9.5" y1="135.5" x2="70.5" y2="135.5" stroke="#D0D5DD" stroke-width="3" stroke-linecap="round"/>
<rect x="8" y="143" width="38" height="15" rx="2" fill="#0040C1"/>
<line x1="15.5" y1="150.5" x2="38.5" y2="150.5" stroke="white" stroke-width="3" stroke-linecap="round"/>
<line x1="12" y1="118" x2="108" y2="118" stroke="#98A2B3" stroke-width="8" stroke-linecap="round"/>
</svg>
